<mxfile host="app.diagrams.net" modified="2023-12-18T13:02:48.930Z" agent="Mozilla/5.0 (Windows NT 10.0; Win64; x64) AppleWebKit/537.36 (KHTML, like Gecko) Chrome/120.0.0.0 Safari/537.36" version="22.1.11" etag="Mbdq27Gg8bL8c5HEUtda" type="github">
  <diagram name="Страница — 1" id="gyKFmNNZA4GfUjenr7MD">
    <mxGraphModel>
      <root>
        <mxCell id="0" />
        <mxCell id="1" parent="0" />
      </root>
    </mxGraphModel>
  </diagram>
</mxfile>
